<svg xmlns="http://www.w3.org/2000/svg" viewBox="0 0 64 64" fill="none" stroke="#e4e4e7" stroke-width="4" stroke-linecap="round" stroke-linejoin="round">
  <!-- Left Side (Organic) -->
  <path d="M30 8 C 16 8 4 18 4 32 C 4 46 16 56 30 56" />
  <path d="M 30 20 C 22 20 16 24 16 32" />
  <path d="M 16 32 C 16 38 20 44 30 44" />
  
  <!-- Right Side (Circuit) -->
  <path d="M34 8 C 48 8 60 18 60 32 C 60 46 48 56 34 56" />
  
  <!-- Connections on right -->
  <line x1="34" y1="20" x2="50" y2="20" />
  <circle cx="50" cy="20" r="3" fill="#e4e4e7" stroke="none" />
  
  <line x1="34" y1="32" x2="44" y2="32" />
  <line x1="44" y1="32" x2="48" y2="28" />
  <circle cx="48" cy="28" r="3" fill="#e4e4e7" stroke="none" />
  
  <line x1="34" y1="44" x2="46" y2="44" />
  <line x1="46" y1="44" x2="52" y2="38" />
  <circle cx="52" cy="38" r="3" fill="#e4e4e7" stroke="none" />

  <!-- Center Separation -->
  <line x1="32" y1="6" x2="32" y2="58" stroke-width="2" stroke-opacity="0.5"/>
</svg>